<svg version="1.2" xmlns="http://www.w3.org/2000/svg" viewBox="0 0 250 250">
	<title>dark-svg</title>
	<style>
		.s0 { opacity: .5;fill: #afafaf } 
		.s1 { fill: #1c3c5b } 
		.s2 { fill: #f6e726 } 
	</style>
	<g id="dark">
		<path id="&lt;Path&gt;" class="s0" d="m206.7 181.6c-31.8 45.1-94.2 55.9-139.3 24-45.2-31.9-55.9-94.3-24.1-139.4 31.8-45.1 94.2-55.9 139.4-24 45.1 31.8 55.8 94.2 24 139.4z"/>
		<path id="&lt;Path&gt;" class="s1" d="m206.7 177.7c-31.8 45.1-94.2 55.9-139.3 24.1-45.2-31.9-55.9-94.3-24.1-139.4 31.8-45.2 94.2-55.9 139.4-24.1 45.1 31.9 55.8 94.3 24 139.4z"/>
		<path id="&lt;Path&gt;" class="s2" d="m108.9 61.3c-8.1 0-15.8 1.8-22.8 5 25.2 5.1 44.1 27.7 44.1 54.7 0 22.6-13.1 42-32.1 50.8q5.3 1.1 10.8 1.1c30.4 0 55-25 55-55.8 0-30.8-24.6-55.8-55-55.8z"/>
		<g id="&lt;Group&gt;">
			<g id="&lt;Group&gt;">
				<path id="&lt;Path&gt;" class="s2" d="m137.1 192.8l0.5 6.6 6.4 1.6-6.1 2.5 0.4 6.6-4.2-5.2-6.2 2.5 3.5-5.5-4.3-5.1 6.5 1.6z"/>
			</g>
		</g>
		<g id="&lt;Group&gt;">
			<g id="&lt;Group&gt;">
				<path id="&lt;Path&gt;" class="s2" d="m201.7 135.8l4.5 4.3 5.6-3-2.8 5.6 4.5 4.3-6.2-0.8-2.8 5.6-1-6.1-6.2-0.8 5.5-3z"/>
			</g>
		</g>
		<g id="&lt;Group&gt;">
			<g id="&lt;Group&gt;">
				<path id="&lt;Path&gt;" class="s2" d="m57.4 71.8l0.3 5.6 5.5 1.5-5.3 1.9 0.3 5.6-3.5-4.4-5.3 2 3.1-4.7-3.6-4.3 5.4 1.5z"/>
			</g>
		</g>
		<g id="&lt;Group&gt;">
			<g id="&lt;Group&gt;">
				<path id="&lt;Path&gt;" class="s2" d="m55.9 140.2l0.4 8.9 8.6 2.4-8.3 3 0.4 8.9-5.5-7-8.4 3.2 4.9-7.4-5.6-6.8 8.6 2.3z"/>
			</g>
		</g>
		<g id="&lt;Group&gt;">
			<g id="&lt;Group&gt;">
				<path id="&lt;Path&gt;" class="s2" d="m168.5 37l5.3 7.7 8.9-2.6-5.7 7.3 5.3 7.6-8.9-3.1-5.7 7.4 0.3-9.3-8.7-3 8.9-2.6z"/>
			</g>
		</g>
	</g>
</svg>