<svg version="1.2" xmlns="http://www.w3.org/2000/svg" viewBox="0 0 250 250">
	<title>light-svg</title>
	<style>
		.s0 { fill: #bfe3f7 } 
		.s1 { fill: #e9eff4 } 
		.s2 { fill: none } 
		.s3 { fill: #f6e726 } 
		.s4 { fill: #fce64c } 
		.s5 { opacity: .2;fill: #f2a51b } 
		.s6 { fill: #bee2f6 } 
	</style>
	<g id="light">
		<path id="&lt;Compound Path&gt;" class="s0" d="m181.5 165.3c-25.2 35.8-74.8 44.3-110.6 19-35.8-25.2-44.3-74.8-19-110.6 25.2-35.9 74.7-44.4 110.5-19.1 35.8 25.2 44.4 74.8 19.1 110.7z"/>
		<path id="&lt;Compound Path&gt;" class="s1" d="m108.7 81.5c1.7-1.1 2.7-3 2.7-5.1 0-3.4-2.7-6.2-6.1-6.2-1.2 0-2.2 0.3-3.2 0.9-0.5-2.8-3-5-6-5-1.8 0-3.4 0.7-4.5 2-0.7-2.6-3.1-4.5-5.9-4.5-1.7 0-3.2 0.7-4.3 1.8-0.8-2.6-3.1-4.4-5.9-4.4-2.5 0-4.6 1.5-5.6 3.7-1.1-1.3-2.8-2.2-4.6-2.2-2 0-3.8 1-4.9 2.5-1.1-0.8-2.3-1.3-3.7-1.3-2.7 0-4.9 1.7-5.8 4-3 0.4-5.3 2.9-5.3 6.1 0 1.7 0.7 3.2 1.8 4.4-2.8 0.5-4.9 3-4.9 6 0 2.7 1.7 4.9 4.1 5.8q-0.4 1.1-0.5 2.3c0 3.1 2.4 5.7 5.4 6.1 1 2.1 3.1 3.5 5.5 3.5 1.2 0 2.2-0.3 3.1-0.9 1.2 1.4 2.9 2.3 4.8 2.3 1.1 0 2.2-0.3 3.1-0.8 1.1 1.2 2.6 1.9 4.4 1.9 1.1 0 2.2-0.3 3.1-0.9 1.1 1 2.6 1.6 4.2 1.6 2.3 0 4.3-1.3 5.4-3.2 1.1 1 2.5 1.7 4.1 1.7 2.9 0 5.3-2 6-4.7 0.9 0.6 2 0.9 3.1 0.9 3.4 0 6.2-2.8 6.2-6.2q0-0.5-0.1-1.1 0.3 0.1 0.7 0.1c3.3 0 6.1-2.8 6.1-6.2 0-2-1-3.8-2.5-4.9z"/>
		<path id="&lt;Compound Path&gt;" class="s2" d="m110.5 80.2c1.7-1.1 2.9-3.1 2.9-5.4 0-3.6-3-6.6-6.6-6.6-1.2 0-2.4 0.4-3.4 1-0.5-3.1-3.2-5.4-6.4-5.4-1.9 0-3.6 0.8-4.8 2.1-0.8-2.7-3.3-4.7-6.3-4.7-1.7 0-3.3 0.7-4.5 1.9-0.8-2.7-3.3-4.7-6.3-4.7-2.6 0-4.9 1.6-6 3.9-1.2-1.4-2.9-2.2-4.9-2.2-2.2 0-4 1-5.2 2.6-1.1-0.9-2.5-1.4-4-1.4-2.8 0-5.2 1.8-6.1 4.2-3.2 0.4-5.7 3.2-5.7 6.5 0 1.9 0.7 3.5 1.9 4.7-3 0.6-5.2 3.2-5.2 6.4 0 2.9 1.8 5.3 4.4 6.2q-0.5 1.2-0.5 2.5c0 3.3 2.5 6.1 5.7 6.5 1 2.2 3.3 3.7 5.9 3.7 1.2 0 2.3-0.3 3.3-0.9 1.2 1.5 3.1 2.4 5.1 2.4 1.2 0 2.3-0.3 3.2-0.9 1.2 1.3 2.9 2 4.7 2 1.3 0 2.4-0.3 3.4-0.9 1.2 1.1 2.7 1.7 4.4 1.7 2.5 0 4.7-1.4 5.8-3.4 1.1 1.1 2.7 1.8 4.4 1.8 3.1 0 5.6-2.1 6.4-5 0.9 0.6 2.1 0.9 3.3 0.9 3.6 0 6.5-2.9 6.5-6.5q0-0.6-0.1-1.2 0.4 0 0.8 0c3.6 0 6.5-2.9 6.5-6.5 0-2.2-1-4.1-2.6-5.3z"/>
		<path id="&lt;Compound Path&gt;" class="s3" d="m151.2 114.1c1.5-0.1 2.9-0.3 4.2-0.9 2.6-0.3 3.9-2.1 4.9-4.3 0.5-1.5 1.8-2.3 2.9-3.2 2.1-1 4.4-0.9 6.4-2q0-0.2 0-0.4c-2.5-1.6-5.2-1-7.8-0.9-1.2 0-2.2 0.3-3.2 0.9q-2.5-0.3-5.1-0.5c-1.4-0.8-3.1-0.2-4.6-1.1 2-3.1 1.8-3.5-1.9-4-1-0.2-1.1-0.7-0.9-1.5 0.3-0.8 0.7-1.5 1.1-2.3 2.7-1.9 5.2-3.9 4.6-8.3-2.5 2.3-5.6 2.1-8.3 3-2-0.1-3.6 0.6-5.1 1.8q-0.4-0.5-0.7-0.9-0.1-0.9-0.1-1.8 0.9-2.4 1.9-4.8c0.2-0.6 0.7-1.4 0.3-2-0.6-0.7-1.2 0.1-1.8 0.2-1 0.2-2 0.4-2.9 0.5-2 0.2-4 0.1-5.8 0.8-1 0-1.4 0.7-1.9 1.4-1.1 1.8-1.7 0.7-2.3-0.4-0.5-1.6-1.4-3-1.3-4.8 1.8-4.5 1.1-8.6-1.9-12.3q-0.2 0-0.4 0c0.1 2.1-0.6 4-1.7 5.7-1.2 1.8-2.5 3.5-3.8 5.2-1.4 1.7-2.9 3.4-3.3 5.6 0.1 2.3-4.6-2.7-5.4-4.2-0.9-2.6-2.6-4.4-4.9-5.7-0.6-0.3-1.8-0.9-1.4 0.6 0.7 2.9 0 5.6-0.7 8.3-0.8 1.7-1.6 3.3-2.2 5-1.7-0.5-3.3-1.4-4.7-2.6 0.6 1.7 0.4 3.5-0.7 4.9q-0.4 0.5-0.7 1c-1.6-1.3-3.2-2-5.2-1.9-2.9-0.9-6-0.7-8.6-3.1-0.5 4.6 2 6.6 4.8 8.5 0.4 0.8 0.8 1.6 1.1 2.4 0.2 0.8 0.1 1.4-0.9 1.5-3.8 0.6-4 1-2 4.2-1.5 0.9-3.3 0.3-4.7 1.1q-2.6 0.3-5.2 0.5c-1-0.6-2.1-0.9-3.3-0.9-2.7-0.1-5.4-0.7-7.9 0.9q0 0.2 0 0.5c2 1.1 4.4 0.9 6.4 2 1.2 0.9 2.5 1.7 3.1 3.3 1 2.2 2.3 4.1 5 4.4 1.3 0.6 2.8 0.9 4.2 0.9 0.6 0.6 0.2 0.8-0.3 1q-2.6 1.4-4.7 3.5c-0.4 0.4-1.2 0.6-0.9 1.3 0.2 0.3 0.8 0.5 1.2 0.6 1.4 0.4 2.7 0.8 4.1 1.2 1.4 0.5 2.1 1.4 0.8 2.8-1.6 1-2.3 2.6-3 4.2-1.9 1.7-4.3 1.9-6.6 2.5-2.7 0.4-5.4 0.9-6.5 4.1-0.4 0.8-0.5 1.6 0.8 1.4 3.2-0.4 6.3 0.3 9.5 0.5 1.8 0.7 3.7 0.4 5.6 0.3 1.3 0.3 2.5-0.1 3.8-0.5 2.4-0.7 2.4-0.7 1.9 2.1-0.2 0.9-0.9 1.9-0.1 2.5 0.8 0.6 1.6-0.4 2.3-0.7 0.8-0.3 1.6-0.6 2.4-0.9q0.3 0.3 0.5 0.5c-1.1 3.2-1 6.4-0.9 9.7q0 0.3 0 0.6c-0.2 2.3-0.6 4.6-1.9 6.6-0.2 0.4-0.7 0.8-0.3 1.3 0.3 0.5 0.9 0.4 1.5 0.3 1.5-0.4 2.5-1.4 3.6-2.6q1.1-1.3 2.3-2.6 1.4-1.7 2.9-3.5 1.3-0.8 2.6-1.6c2.1-0.3 2 6.4 2 6.4 0 0 2.4-1 3-3.9 2.7 5.8 7 7 7.9 9.6 0.1 2.5 3.9 5.6 6.3 6.8 0.3 0 1.5-3.2 1.5-5.9q0.5-1.7 0.9-3.3c1-1.2 2.1-2.4 1.9-4.2 0.8-1.1 0.1-2.8 1.4-3.9 0.5 0.5 1 1 1.5 1.4 0.5 0.6 0.9 1.6 1.7 1.4 0.8-0.3 0.7-1.4 0.8-2.2 0.1-0.2 0.1-0.5 0.1-0.7-0.3-2.2 0.7-3.1 2.7-2.8q1.3 0.8 2.6 1.6 1.4 1.6 2.8 3.3 1.2 1.3 2.3 2.6c1 1.1 2 2.1 3.5 2.5 0.5 0.1 1.1 0.2 1.5-0.3 0.3-0.5-0.1-0.9-0.4-1.3-1.2-1.9-1.6-4.2-1.8-6.4q0-0.3 0-0.6c0.1-3.1 0.2-6.3-0.9-9.4q0.2-0.2 0.5-0.5c0.8 0.3 1.5 0.6 2.3 0.9 0.8 0.3 1.5 1.3 2.3 0.7 0.7-0.6 0-1.6-0.1-2.4-0.5-2.7-0.5-2.7 1.9-2.1 1.2 0.4 2.4 0.8 3.7 0.5 1.8 0.1 3.7 0.4 5.4-0.3 3.1-0.1 6.2-0.9 9.3-0.5 1.3 0.2 1.1-0.5 0.8-1.4-1.1-3-3.7-3.5-6.4-3.9-2.2-0.7-4.5-0.9-6.4-2.5-0.7-1.5-1.4-3.1-2.9-4-1.3-1.4-0.6-2.2 0.8-2.7 1.3-0.5 2.6-0.8 3.9-1.2 0.4-0.2 1.1-0.3 1.2-0.6 0.3-0.7-0.5-0.9-0.8-1.2q-2.1-2.1-4.7-3.4c-0.4-0.3-0.9-0.5-0.3-1z"/>
		<path id="&lt;Path&gt;" class="s4" d="m115.1 144.4c-15.6 0-28.3-12.6-28.3-28.1 0-15.5 12.7-28.1 28.3-28.1 15.7 0 28.3 12.6 28.3 28.1 0 15.5-12.6 28.1-28.3 28.1z"/>
		<path id="&lt;Path&gt;" class="s5" d="m105.9 139.8c0 0 17.1 0.4 25.6-9.5 8.6-9.8 5.4-26.3 5.4-26.3 0 0 9.7 16.3-1.4 30.2-11 13.9-29.6 5.6-29.6 5.6z"/>
		<path id="&lt;Compound Path&gt;" class="s6" d="m216.2 151.9q-0.6 0-1.1 0c-1.7-4.2-10.2-7.5-20.5-7.5q-2.3 0-4.5 0.2c-3.3-3.1-10.5-5.2-18.9-5.2-8.7 0-16.2 2.3-19.3 5.7-2.9-0.7-6.2-1.1-9.8-1.1-11.5 0-20.8 4-20.8 9q0 1 0.4 1.9c-5.7 1.6-9.6 4.4-9.6 7.6 0 4.9 9.4 9 20.9 9 2.4 0 4.7-0.2 6.8-0.5q0.3 0.1 0.6 0.1-0.8 1.2-0.8 2.5c0 5 9.3 9 20.8 9 7.7 0 14.4-1.8 18-4.5 3.3 1 7.4 1.6 11.7 1.6 11.5 0 20.8-4.1 20.8-9q0-0.6-0.1-1 2.6 0.3 5.4 0.3c11.5 0 20.8-4.1 20.8-9.1 0-5-9.3-9-20.8-9z"/>
		<path id="&lt;Compound Path&gt; copy" class="s2" d="m111 80.4c1.7-1.2 2.9-3.2 2.9-5.4 0-3.7-3-6.6-6.6-6.6-1.2 0-2.4 0.4-3.4 0.9-0.5-3-3.2-5.3-6.4-5.3-1.9 0-3.6 0.8-4.8 2.1-0.8-2.7-3.3-4.7-6.3-4.7-1.7 0-3.3 0.7-4.5 1.8-0.8-2.7-3.3-4.6-6.3-4.6-2.7 0-5 1.6-6 3.9-1.2-1.4-2.9-2.3-4.9-2.3-2.2 0-4.1 1-5.2 2.6-1.1-0.8-2.5-1.3-4-1.3-2.8 0-5.2 1.7-6.1 4.2-3.2 0.4-5.7 3.2-5.7 6.5 0 1.8 0.7 3.5 1.9 4.7-3 0.6-5.2 3.2-5.2 6.4 0 2.8 1.8 5.3 4.4 6.2q-0.5 1.1-0.5 2.5c0 3.3 2.5 6 5.7 6.5 1 2.1 3.3 3.7 5.9 3.7 1.2 0 2.3-0.4 3.3-1 1.2 1.5 3 2.5 5.1 2.5 1.2 0 2.3-0.3 3.2-0.9 1.2 1.2 2.9 2 4.7 2 1.3 0 2.4-0.3 3.4-0.9 1.2 1 2.7 1.7 4.4 1.7 2.5 0 4.6-1.4 5.7-3.4 1.2 1.1 2.8 1.7 4.5 1.7 3.1 0 5.6-2.1 6.4-4.9 0.9 0.6 2.1 0.9 3.3 0.9 3.6 0 6.5-2.9 6.5-6.6q0-0.6-0.1-1.1 0.4 0 0.8 0c3.6 0 6.5-2.9 6.5-6.5 0-2.2-1-4.1-2.6-5.3z"/>
		<path id="&lt;Path&gt; copy" class="s4" d="m115.5 144.5c-15.7 0-28.3-12.5-28.3-28 0-15.6 12.6-28.1 28.3-28.1 15.6 0 28.3 12.5 28.3 28.1 0 15.5-12.7 28-28.3 28z"/>
		<path id="&lt;Compound Path&gt;" class="s1" d="m214.9 151.5q-0.5 0-1.1 0c-1.6-4-9.7-7.1-19.5-7.1q-2.2 0-4.3 0.2c-3.1-3-10-5-17.9-5-8.4 0-15.5 2.2-18.4 5.4-2.8-0.6-6-1-9.4-1-11 0-19.8 3.8-19.8 8.6q0 0.9 0.4 1.7c-5.5 1.6-9.2 4.2-9.2 7.3 0 4.7 8.9 8.6 19.9 8.6 2.3 0 4.5-0.2 6.5-0.5q0.3 0.1 0.6 0.1-0.8 1.1-0.8 2.4c0 4.7 8.9 8.6 19.8 8.6 7.4 0 13.7-1.7 17.2-4.3 3.2 0.9 7 1.5 11.1 1.5 11 0 19.9-3.9 19.9-8.6q0-0.5-0.2-1 2.5 0.3 5.2 0.3c10.9 0 19.8-3.8 19.8-8.6 0-4.7-8.9-8.6-19.8-8.6z"/>
	</g>
</svg>